<svg xmlns="http://www.w3.org/2000/svg" viewBox="0 0 100 100">
  <path fill="#075985" d="M94.996,67.5C94.996,67.054,94.881,66.609,94.644,66.214L81.291,43.96C83.506,42.655,85,40.252,85,37.5C85,36.119,83.881,35,82.5,35S80,36.119,80,37.5C80,38.878,78.878,40,77.5,40S75,38.878,75,37.5C75,36.119,73.881,35,72.5,35L57.063,35C56.308,32.875,54.625,31.192,52.5,30.437L52.5,23.837L58.887,19.579C59.459,19.198,59.848,18.598,59.964,17.921C60.08,17.245,59.912,16.55,59.5,16L52,6C51.528,5.371,50.787,5,50,5S48.472,5.371,48,6L40.5,16C40.088,16.55,39.92,17.245,40.036,17.922C40.152,18.599,40.541,19.199,41.113,19.58L47.5,23.838L47.5,30.438C45.375,31.193,43.692,32.876,42.937,35.001L27.5,35.001C26.119,35.001,25,36.12,25,37.501C25,38.879,23.878,40.001,22.5,40.001S20,38.878,20,37.5C20,36.119,18.881,35,17.5,35S15,36.119,15,37.5C15,40.252,16.494,42.655,18.709,43.96L5.356,66.214C5.119,66.61,5.004,67.055,5.004,67.5L5,67.5C5,74.509,12.687,80,22.5,80S40,74.509,40,67.5L39.996,67.5ZM22.5,75C17.179,75,12.52,72.878,10.759,70L34.241,70C32.48,72.878,27.821,75,22.5,75ZM33.084,65L11.916,65L22.5,47.359L33.084,65ZM46.085,16.886L50,11.667L53.915,16.886L50,19.496L46.085,16.886ZM50,40C48.622,40,47.5,38.878,47.5,37.5S48.622,35,50,35S52.5,36.122,52.5,37.5S51.378,40,50,40ZM77.5,47.359L88.084,65L66.916,65L77.5,47.359ZM77.5,75C72.179,75,67.52,72.878,65.759,70L89.241,70C87.48,72.878,82.821,75,77.5,75Z" />
</svg>
